<?xml version="1.0" encoding="UTF-8"?>
<svg width="26px" height="25px" viewBox="0 0 26 25" version="1.1" xmlns="http://www.w3.org/2000/svg" xmlns:xlink="http://www.w3.org/1999/xlink">
    <!-- Generator: Sketch 51 (57462) - http://www.bohemiancoding.com/sketch -->
    <title>icon-plus--purple</title>
    <desc>Created with Sketch.</desc>
    <defs></defs>
    <g id="Welcome" stroke="none" stroke-width="1" fill="none" fill-rule="evenodd">
        <g id="Desktop-HD" transform="translate(-444.000000, -260.000000)" fill="#9013FE">
            <path d="M468.261719,269.988281 C468.683594,269.988281 469.011719,270.316406 469.011719,270.738281 L469.011719,275.238281 C469.011719,275.660156 468.683594,275.988281 468.261719,275.988281 L460,275.988281 L460,284.25 C460,284.671875 459.671875,285 459.25,285 L454.75,285 C454.328125,285 454,284.671875 454,284.25 L454,275.988281 L445.738281,275.988281 C445.316406,275.988281 444.976562,275.660156 444.976562,275.238281 L444.976562,270.738281 C444.976562,270.316406 445.316406,269.988281 445.738281,269.988281 L454,269.988281 L454,261.726562 C454,261.304688 454.328125,260.964844 454.75,260.964844 L459.25,260.964844 C459.671875,260.964844 460,261.304688 460,261.726562 L460,269.988281 L468.261719,269.988281 Z" id="icon-plus--purple"></path>
        </g>
    </g>
</svg>